<svg id="visual" viewBox="0 0 960 540" width="960" height="540" xmlns="http://www.w3.org/2000/svg" xmlns:xlink="http://www.w3.org/1999/xlink" version="1.1"><rect x="0" y="0" width="960" height="540" fill="#0f0f0f"></rect><path d="M0 430L20 428C40 426 80 422 120 421.5C160 421 200 424 240 417.7C280 411.3 320 395.7 360 387.2C400 378.7 440 377.3 480 380C520 382.7 560 389.3 600 393C640 396.7 680 397.3 720 395.3C760 393.3 800 388.7 840 389.8C880 391 920 398 940 401.5L960 405L960 541L940 541C920 541 880 541 840 541C800 541 760 541 720 541C680 541 640 541 600 541C560 541 520 541 480 541C440 541 400 541 360 541C320 541 280 541 240 541C200 541 160 541 120 541C80 541 40 541 20 541L0 541Z" fill="#0f0f0f"></path><path d="M0 439L20 433C40 427 80 415 120 409C160 403 200 403 240 405.5C280 408 320 413 360 415.7C400 418.3 440 418.7 480 419.5C520 420.3 560 421.7 600 421.5C640 421.3 680 419.7 720 416.8C760 414 800 410 840 410C880 410 920 414 940 416L960 418L960 541L940 541C920 541 880 541 840 541C800 541 760 541 720 541C680 541 640 541 600 541C560 541 520 541 480 541C440 541 400 541 360 541C320 541 280 541 240 541C200 541 160 541 120 541C80 541 40 541 20 541L0 541Z" fill="#171717"></path><path d="M0 447L20 445.5C40 444 80 441 120 440.3C160 439.7 200 441.3 240 439.3C280 437.3 320 431.7 360 432C400 432.3 440 438.7 480 445.2C520 451.7 560 458.3 600 455C640 451.7 680 438.3 720 433.8C760 429.3 800 433.7 840 436.3C880 439 920 440 940 440.5L960 441L960 541L940 541C920 541 880 541 840 541C800 541 760 541 720 541C680 541 640 541 600 541C560 541 520 541 480 541C440 541 400 541 360 541C320 541 280 541 240 541C200 541 160 541 120 541C80 541 40 541 20 541L0 541Z" fill="#1d1d1d"></path><path d="M0 457L20 460.3C40 463.7 80 470.3 120 470.2C160 470 200 463 240 460.7C280 458.3 320 460.7 360 464.3C400 468 440 473 480 475.5C520 478 560 478 600 480.2C640 482.3 680 486.7 720 486.8C760 487 800 483 840 484.2C880 485.3 920 491.7 940 494.8L960 498L960 541L940 541C920 541 880 541 840 541C800 541 760 541 720 541C680 541 640 541 600 541C560 541 520 541 480 541C440 541 400 541 360 541C320 541 280 541 240 541C200 541 160 541 120 541C80 541 40 541 20 541L0 541Z" fill="#232323"></path><path d="M0 509L20 509.5C40 510 80 511 120 510.2C160 509.3 200 506.7 240 505.5C280 504.3 320 504.7 360 506.8C400 509 440 513 480 510.7C520 508.3 560 499.7 600 499.8C640 500 680 509 720 512.8C760 516.7 800 515.3 840 513.5C880 511.7 920 509.3 940 508.2L960 507L960 541L940 541C920 541 880 541 840 541C800 541 760 541 720 541C680 541 640 541 600 541C560 541 520 541 480 541C440 541 400 541 360 541C320 541 280 541 240 541C200 541 160 541 120 541C80 541 40 541 20 541L0 541Z" fill="#2a2a2a"></path></svg>