<svg id="visual" viewBox="0 0 960 540" width="960" height="540" xmlns="http://www.w3.org/2000/svg" xmlns:xlink="http://www.w3.org/1999/xlink" version="1.1"><g stroke-width="1" stroke-linejoin="bevel"><path d="M487 214L593 183L489 116Z" fill="#0c0c0c" stroke="#0c0c0c"></path><path d="M593 183L601 123L489 116Z" fill="#0c0c0c" stroke="#0c0c0c"></path><path d="M489 116L361 178L487 214Z" fill="#151515" stroke="#151515"></path><path d="M585 0L499 0L489 116Z" fill="#1c1c1c" stroke="#1c1c1c"></path><path d="M489 116L499 0L376 114Z" fill="#151515" stroke="#151515"></path><path d="M376 114L361 178L489 116Z" fill="#151515" stroke="#151515"></path><path d="M601 123L585 0L489 116Z" fill="#0f0f0f" stroke="#0f0f0f"></path><path d="M593 183L705 120L601 123Z" fill="#000000" stroke="#000000"></path><path d="M601 123L705 120L585 0Z" fill="#0c0c0c" stroke="#0c0c0c"></path><path d="M574 354L708 240L593 183Z" fill="#1c1c1c" stroke="#1c1c1c"></path><path d="M593 183L708 240L705 120Z" fill="#191919" stroke="#191919"></path><path d="M459 357L574 354L487 214Z" fill="#151515" stroke="#151515"></path><path d="M487 214L574 354L593 183Z" fill="#000000" stroke="#000000"></path><path d="M355 294L459 357L487 214Z" fill="#040404" stroke="#040404"></path><path d="M361 178L355 294L487 214Z" fill="#0f0f0f" stroke="#0f0f0f"></path><path d="M574 354L716 316L708 240Z" fill="#0f0f0f" stroke="#0f0f0f"></path><path d="M817 92L758 0L705 120Z" fill="#191919" stroke="#191919"></path><path d="M499 0L323 0L376 114Z" fill="#0f0f0f" stroke="#0f0f0f"></path><path d="M255 106L261 187L361 178Z" fill="#040404" stroke="#040404"></path><path d="M361 178L261 187L355 294Z" fill="#040404" stroke="#040404"></path><path d="M255 106L361 178L376 114Z" fill="#1e1e1e" stroke="#1e1e1e"></path><path d="M499 454L592 431L574 354Z" fill="#171717" stroke="#171717"></path><path d="M574 354L592 431L716 316Z" fill="#1e1e1e" stroke="#1e1e1e"></path><path d="M817 92L705 120L820 252Z" fill="#080808" stroke="#080808"></path><path d="M705 120L758 0L585 0Z" fill="#080808" stroke="#080808"></path><path d="M323 0L255 106L376 114Z" fill="#0c0c0c" stroke="#0c0c0c"></path><path d="M340 441L499 454L459 357Z" fill="#0f0f0f" stroke="#0f0f0f"></path><path d="M459 357L499 454L574 354Z" fill="#151515" stroke="#151515"></path><path d="M820 252L705 120L708 240Z" fill="#1e1e1e" stroke="#1e1e1e"></path><path d="M323 0L278 0L255 106Z" fill="#0f0f0f" stroke="#0f0f0f"></path><path d="M800 329L820 252L716 316Z" fill="#191919" stroke="#191919"></path><path d="M716 316L820 252L708 240Z" fill="#0f0f0f" stroke="#0f0f0f"></path><path d="M702 452L800 329L716 316Z" fill="#040404" stroke="#040404"></path><path d="M602 540L702 452L592 431Z" fill="#1c1c1c" stroke="#1c1c1c"></path><path d="M592 431L702 452L716 316Z" fill="#040404" stroke="#040404"></path><path d="M355 294L340 441L459 357Z" fill="#191919" stroke="#191919"></path><path d="M221 347L340 441L355 294Z" fill="#0f0f0f" stroke="#0f0f0f"></path><path d="M157 331L221 347L261 187Z" fill="#0c0c0c" stroke="#0c0c0c"></path><path d="M261 187L221 347L355 294Z" fill="#0f0f0f" stroke="#0f0f0f"></path><path d="M960 81L863 0L817 92Z" fill="#1e1e1e" stroke="#1e1e1e"></path><path d="M817 92L863 0L758 0Z" fill="#1c1c1c" stroke="#1c1c1c"></path><path d="M384 540L493 540L499 454Z" fill="#1e1e1e" stroke="#1e1e1e"></path><path d="M499 454L602 540L592 431Z" fill="#000000" stroke="#000000"></path><path d="M493 540L602 540L499 454Z" fill="#171717" stroke="#171717"></path><path d="M340 441L384 540L499 454Z" fill="#191919" stroke="#191919"></path><path d="M202 540L384 540L340 441Z" fill="#040404" stroke="#040404"></path><path d="M157 331L201 396L221 347Z" fill="#0c0c0c" stroke="#0c0c0c"></path><path d="M221 347L201 396L340 441Z" fill="#0c0c0c" stroke="#0c0c0c"></path><path d="M104 185L157 331L261 187Z" fill="#171717" stroke="#171717"></path><path d="M104 185L261 187L255 106Z" fill="#0c0c0c" stroke="#0c0c0c"></path><path d="M602 540L696 540L702 452Z" fill="#040404" stroke="#040404"></path><path d="M702 452L872 457L800 329Z" fill="#191919" stroke="#191919"></path><path d="M109 83L104 185L255 106Z" fill="#080808" stroke="#080808"></path><path d="M278 0L109 83L255 106Z" fill="#171717" stroke="#171717"></path><path d="M960 324L960 202L820 252Z" fill="#0f0f0f" stroke="#0f0f0f"></path><path d="M820 252L960 202L817 92Z" fill="#0f0f0f" stroke="#0f0f0f"></path><path d="M960 324L820 252L800 329Z" fill="#0f0f0f" stroke="#0f0f0f"></path><path d="M960 202L960 81L817 92Z" fill="#0f0f0f" stroke="#0f0f0f"></path><path d="M855 540L872 457L702 452Z" fill="#080808" stroke="#080808"></path><path d="M872 457L960 324L800 329Z" fill="#080808" stroke="#080808"></path><path d="M960 81L960 0L863 0Z" fill="#080808" stroke="#080808"></path><path d="M278 0L98 0L109 83Z" fill="#0f0f0f" stroke="#0f0f0f"></path><path d="M0 81L0 196L104 185Z" fill="#1e1e1e" stroke="#1e1e1e"></path><path d="M0 290L157 331L104 185Z" fill="#0f0f0f" stroke="#0f0f0f"></path><path d="M0 290L99 408L157 331Z" fill="#040404" stroke="#040404"></path><path d="M157 331L99 408L201 396Z" fill="#171717" stroke="#171717"></path><path d="M201 396L202 540L340 441Z" fill="#191919" stroke="#191919"></path><path d="M696 540L855 540L702 452Z" fill="#191919" stroke="#191919"></path><path d="M872 457L960 416L960 324Z" fill="#1e1e1e" stroke="#1e1e1e"></path><path d="M960 540L960 416L872 457Z" fill="#1c1c1c" stroke="#1c1c1c"></path><path d="M131 540L202 540L201 396Z" fill="#0f0f0f" stroke="#0f0f0f"></path><path d="M0 81L104 185L109 83Z" fill="#121212" stroke="#121212"></path><path d="M98 0L0 81L109 83Z" fill="#1c1c1c" stroke="#1c1c1c"></path><path d="M0 196L0 290L104 185Z" fill="#151515" stroke="#151515"></path><path d="M99 408L131 540L201 396Z" fill="#171717" stroke="#171717"></path><path d="M0 454L131 540L99 408Z" fill="#0c0c0c" stroke="#0c0c0c"></path><path d="M98 0L0 0L0 81Z" fill="#1c1c1c" stroke="#1c1c1c"></path><path d="M855 540L960 540L872 457Z" fill="#121212" stroke="#121212"></path><path d="M0 290L0 454L99 408Z" fill="#1c1c1c" stroke="#1c1c1c"></path><path d="M0 454L0 540L131 540Z" fill="#040404" stroke="#040404"></path></g></svg>