<svg id="Layer_1" data-name="Layer 1" xmlns="http://www.w3.org/2000/svg" viewBox="0 0 500 500" width="500" height="500" class="illustration"><defs><style>.cls-1{fill:#0099f5;}.cls-2{fill:#0086f4;}.cls-3{fill:#24285b;}.cls-4{fill:#ececec;}.cls-5{fill:#fff;}.cls-6{fill:#69e0a2;}.cls-7{fill:#f0457d;}.cls-8{fill:#ffd44d;}.cls-9{fill:#f9bb0d;}.cls-10{fill:#171c44;}</style></defs><title>Learning</title><rect class="cls-1" x="31.96" y="135.29" width="433.51" height="307.54" rx="14.57"></rect><path class="cls-2" d="M17.77,423H487.44a0,0,0,0,1,0,0v9.11a17.8,17.8,0,0,1-17.8,17.8H35.57a17.8,17.8,0,0,1-17.8-17.8V423A0,0,0,0,1,17.77,423Z"></path><polygon class="cls-3" points="205.98 422.97 211.81 432.91 293.82 432.91 299.23 422.97 205.98 422.97"></polygon><rect class="cls-4" x="44.38" y="152.98" width="406.98" height="258.98" rx="3.27"></rect><polygon class="cls-5" points="450.92 412.33 43.94 412.33 44.38 172.33 450.92 172.33 450.92 412.33"></polygon><path class="cls-6" d="M86.14,162.57A4.12,4.12,0,1,1,82,158.45,4.12,4.12,0,0,1,86.14,162.57Z"></path><path class="cls-7" d="M61.15,162.57A4.12,4.12,0,1,1,57,158.45,4.11,4.11,0,0,1,61.15,162.57Z"></path><path class="cls-8" d="M73.15,162.57A4.13,4.13,0,1,1,69,158.45,4.12,4.12,0,0,1,73.15,162.57Z"></path><path class="cls-8" d="M352.45,109.51h-205A22.51,22.51,0,0,0,124.91,132V275.74a22.51,22.51,0,0,0,22.52,22.51h90.73l18.74,28.9a3,3,0,0,0,4.91.12l20.91-29h69.73A22.51,22.51,0,0,0,375,275.74V132A22.51,22.51,0,0,0,352.45,109.51Z"></path><path class="cls-9" d="M134.56,284.77a22.33,22.33,0,0,1-8.24-1.57,22.49,22.49,0,0,0,21.23,15.05h90.61l-8.75-13.48Z"></path><path class="cls-9" d="M360.82,111.07a22.52,22.52,0,0,1,1.27,7.46V262.26a22.51,22.51,0,0,1-22.51,22.51H269.86l-20.92,29a3,3,0,0,1-.34.37l8.43,13a3,3,0,0,0,4.91.12l20.91-29h69.72a22.51,22.51,0,0,0,22.52-22.51V132A22.53,22.53,0,0,0,360.82,111.07Z"></path><path class="cls-3" d="M323.18,217.4h0a8.62,8.62,0,0,0-5.78,8.14v11.17H329V225.54a8.62,8.62,0,0,0-5.78-8.14Z"></path><path class="cls-3" d="M199.12,232.67c0,4.88,22.77,8.83,50.86,8.83s50.87-3.95,50.87-8.83V190.89H199.12Z"></path><rect class="cls-3" x="320.85" y="186.03" width="4.66" height="33.55"></rect><polygon class="cls-10" points="207.04 202.8 253.79 225.38 300.85 218.52 300.85 200.3 207.04 202.8"></polygon><path class="cls-3" d="M249.23,215.48l-88.95-26.95a2.61,2.61,0,0,1,0-5l88.95-27a2.59,2.59,0,0,1,1.51,0l88.95,27a2.61,2.61,0,0,1,0,5l-88.95,26.95A2.59,2.59,0,0,1,249.23,215.48Z"></path></svg>