<svg xmlns="http://www.w3.org/2000/svg" viewBox="0 0 100 100" width="500" height="500" class="illustration"><defs><style>.cls-1{fill:#f0457d;}.cls-2{fill:#fff;}.cls-3{fill:#ffd44d;}.cls-4{fill:#0099f5;}.cls-5{fill:none;stroke:#231f20;stroke-linejoin:round;stroke-width:1.5px;}</style></defs><g id="Layer_1" data-name="Layer 1"><path class="cls-1" d="M59.38,27.36a14.14,14.14,0,1,0,5.94,11.51A14.06,14.06,0,0,0,59.38,27.36Z"></path><path class="cls-2" d="M60.16,49.8l-.1-.33a9.25,9.25,0,0,0-8.86-6.56h0a9.26,9.26,0,0,0-8.86,6.56l-.1.33s4.19,3.54,9,3.22A20.27,20.27,0,0,0,60.16,49.8Z"></path><circle class="cls-2" cx="51.38" cy="35.08" r="5.05"></circle><path class="cls-3" d="M42,57.24A14.14,14.14,0,1,0,48,68.75,14.13,14.13,0,0,0,42,57.24Z"></path><path class="cls-2" d="M42.82,79.68l-.1-.33a9.27,9.27,0,0,0-8.86-6.56h0A9.27,9.27,0,0,0,25,79.35l-.09.33s4.18,3.53,9,3.22A20.28,20.28,0,0,0,42.82,79.68Z"></path><circle class="cls-2" cx="34.04" cy="64.95" r="5.05"></circle><path class="cls-4" d="M77.66,57.24A14.14,14.14,0,1,0,83.6,68.75,14.08,14.08,0,0,0,77.66,57.24Z"></path><path class="cls-2" d="M78.44,79.68l-.1-.33a9.25,9.25,0,0,0-8.86-6.56h0a9.26,9.26,0,0,0-8.86,6.56l-.1.33s4.19,3.53,9,3.22A20.28,20.28,0,0,0,78.44,79.68Z"></path><circle class="cls-2" cx="69.66" cy="64.95" r="5.05"></circle></g><g id="Layer_2" data-name="Layer 2"><path class="cls-5" d="M46.07,25.67a14.2,14.2,0,1,1-5,3.31"></path><path class="cls-5" d="M60.14,49.8l-.1-.33a9.25,9.25,0,0,0-8.86-6.56h0a9.26,9.26,0,0,0-8.86,6.56l-.1.33"></path><circle class="cls-5" cx="51.38" cy="35.08" r="5.05"></circle><path class="cls-5" d="M28.72,55.55a14.17,14.17,0,1,1-5,3.3"></path><path class="cls-5" d="M42.8,79.68l-.1-.33a9.27,9.27,0,0,0-8.86-6.56h0a9.27,9.27,0,0,0-8.87,6.56l-.09.33"></path><circle class="cls-5" cx="34.04" cy="64.95" r="5.05"></circle><path class="cls-5" d="M64.35,55.55a14.13,14.13,0,1,1-5,3.3"></path><path class="cls-5" d="M78.42,79.68l-.1-.33a9.25,9.25,0,0,0-8.86-6.56h0a9.26,9.26,0,0,0-8.86,6.56l-.1.33"></path><circle class="cls-5" cx="69.66" cy="64.95" r="5.05"></circle></g></svg>