<svg id="visual" viewBox="0 0 1200 450" width="1200" height="450" xmlns="http://www.w3.org/2000/svg" xmlns:xlink="http://www.w3.org/1999/xlink" version="1.1"><rect x="0" y="0" width="1200" height="450" fill="#0f0f0f"></rect><path d="M0 343L28.5 349.3C57 355.7 114 368.3 171.2 367.5C228.3 366.7 285.7 352.3 342.8 350.3C400 348.3 457 358.7 514.2 356.8C571.3 355 628.7 341 685.8 342.2C743 343.3 800 359.7 857.2 356.2C914.3 352.7 971.7 329.3 1028.8 325.7C1086 322 1143 338 1171.5 346L1200 354L1200 451L1171.5 451C1143 451 1086 451 1028.8 451C971.7 451 914.3 451 857.2 451C800 451 743 451 685.8 451C628.7 451 571.3 451 514.2 451C457 451 400 451 342.8 451C285.7 451 228.3 451 171.2 451C114 451 57 451 28.5 451L0 451Z" fill="#ED6A5A" stroke-linecap="round" stroke-linejoin="miter"></path></svg>